<svg xmlns="http://www.w3.org/2000/svg" xmlns:xlink="http://www.w3.org/1999/xlink" version="1.1" x="0px" y="0px" viewBox="0 0 32 40" enable-background="new 0 0 32 32" xml:space="preserve"><g display="none"><rect x="-109.889" y="-163.333" display="inline" fill="#000000" width="435.561" height="207"/></g><g display="none"><g display="inline"><g><g><path d="M31,1.001v23.06H1V1.001H31 M32,0.001H0v25.06h32V0.001L32,0.001z"/></g></g><line fill="none" stroke="#000000" stroke-miterlimit="10" x1="8.75" y1="31.499" x2="23.25" y2="31.499"/><line fill="none" stroke="#000000" stroke-miterlimit="10" x1="0.5" y1="20.978" x2="31.437" y2="20.978"/></g><g display="inline"><g><g><path d="M16,5.191c1.118,0,2.028,0.91,2.028,2.028S17.118,9.248,16,9.248c-1.118,0-2.028-0.91-2.028-2.028      S14.882,5.191,16,5.191 M16,4.191c-1.673,0-3.028,1.356-3.028,3.028c0,1.673,1.356,3.028,3.028,3.028      c1.673,0,3.028-1.356,3.028-3.028C19.028,5.547,17.673,4.191,16,4.191L16,4.191z"/></g><g><path d="M12.33,12.029l1.964,4.258h-3.433v-2.479C10.861,12.612,11.7,12.183,12.33,12.029 M12.931,10.944      c0,0-3.069,0.041-3.069,2.865s0,3.479,0,3.479s5.975,0,5.995,0L12.931,10.944L12.931,10.944z M15.857,17.287L15.857,17.287      L15.857,17.287L15.857,17.287z"/></g><g><path d="M19.671,12.027c0.619,0.152,1.468,0.579,1.468,1.782v2.479h-3.433L19.671,12.027 M19.069,10.944l-2.926,6.343h0h5.995      c0,0,0-0.655,0-3.479S19.069,10.944,19.069,10.944L19.069,10.944z"/></g><g><polygon points="16,11.255 14.174,11.255 16,15.298 17.826,11.255     "/></g></g></g><line display="inline" fill="none" stroke="#000000" stroke-miterlimit="10" x1="16.01" y1="24.648" x2="16.01" y2="31.561"/></g><g><g><path d="M16,10.248c1.672,0,3.028-1.356,3.028-3.028c0-1.673-1.356-3.028-3.028-3.028c-1.673,0-3.028,1.356-3.028,3.028    C12.972,8.892,14.327,10.248,16,10.248z M16,6.191c0.567,0,1.028,0.461,1.028,1.028S16.567,8.248,16,8.248    c-0.567,0-1.028-0.461-1.028-1.028S15.433,6.191,16,6.191z"/><path d="M12.931,10.944c0,0-3.069,0.041-3.069,2.865s0,3.479,0,3.479s6.016,0,5.995,0L12.931,10.944z"/><path d="M22.139,17.287c0,0,0-0.655,0-3.479s-3.069-2.865-3.069-2.865l-2.926,6.343C16.123,17.287,22.139,17.287,22.139,17.287z"/><polygon points="16,11.255 14.174,11.255 16,15.298 17.826,11.255   "/><path d="M0,25.06h15.01v4.939H8.75v2h14.5v-2h-6.24V25.06H32V0.001H0V25.06z M2,23.06v-1.424h28v1.424H2z M30,2.001v17.636H2    V2.001H30z"/></g></g><g display="none"><g display="inline"><path d="M0,25.06h15.76v6.44H8.75V32h14.5v-0.5h-6.99v-6.44H32V0H0V25.06z M0.5,0.5h31v20.227h-31v0.5h31v3.333h-31V0.5z"/><path d="M16,10.248c1.672,0,3.028-1.356,3.028-3.028c0-1.673-1.356-3.028-3.028-3.028c-1.673,0-3.028,1.356-3.028,3.028    C12.972,8.892,14.327,10.248,16,10.248z M16,4.691c1.394,0,2.528,1.134,2.528,2.528c0,1.394-1.134,2.528-2.528,2.528    c-1.394,0-2.528-1.134-2.528-2.528C13.472,5.826,14.606,4.691,16,4.691z"/><path d="M12.931,10.944c0,0-3.069,0.041-3.069,2.865s0,3.479,0,3.479s5.975,0,5.995,0L12.931,10.944z M10.361,13.808    c0-1.844,1.555-2.251,2.261-2.34l2.453,5.318h-4.714V13.808z"/><path d="M22.139,17.287c0,0,0-0.655,0-3.479s-3.069-2.865-3.069-2.865l-2.926,6.343H22.139z M19.377,11.47    c0.69,0.091,2.261,0.501,2.261,2.339v2.979h-4.714L19.377,11.47z"/><path d="M16,11.255h-1.826L16,15.298l1.826-4.043H16z M14.948,11.755H16h1.052L16,14.083L14.948,11.755z"/></g></g><g display="none"><g display="inline"><polygon points="0,25.312 15.76,25.312 15.76,30.5 8.755,30.5 8.755,31 23.255,31 23.255,30.5 16.26,30.5 16.26,25.312 32,25.312     32,21.479 0,21.479   "/><path d="M12.622,11.114c-0.706,0.089-2.261,0.495-2.261,2.34v2.979h4.714L12.622,11.114z"/><circle cx="16" cy="6.865" r="2.528"/><polygon points="16,11.4 14.948,11.4 16,13.729 17.052,11.4   "/><path d="M0,20.979h32V0H0V20.979z M22.139,13.454c0,2.824,0,3.479,0,3.479h-5.995l2.926-6.343    C19.069,10.589,22.139,10.63,22.139,13.454z M16,14.943L14.174,10.9H16h1.826L16,14.943z M16,3.837    c1.672,0,3.028,1.356,3.028,3.028c0,1.672-1.356,3.028-3.028,3.028c-1.673,0-3.028-1.356-3.028-3.028    C12.972,5.192,14.327,3.837,16,3.837z M9.861,13.454c0-2.824,3.069-2.865,3.069-2.865l2.926,6.343c-0.021,0-5.995,0-5.995,0    S9.861,16.277,9.861,13.454z"/><path d="M21.639,16.432v-2.979c0-1.837-1.572-2.247-2.261-2.339l-2.453,5.317H21.639z"/></g></g><text x="0" y="47" fill="#000000" font-size="5px" font-weight="bold" font-family="'Helvetica Neue', Helvetica, Arial-Unicode, Arial, Sans-serif">Created by Alfredo @ IconsAlfredo.com</text><text x="0" y="52" fill="#000000" font-size="5px" font-weight="bold" font-family="'Helvetica Neue', Helvetica, Arial-Unicode, Arial, Sans-serif">from the Noun Project</text></svg>