<svg xmlns="http://www.w3.org/2000/svg" viewBox="0 0 24 30" x="0px" y="0px"><title>question</title><g><path d="M20,7H15a1,1,0,0,1-1-1V1a1,1,0,0,1,.62-.92,1,1,0,0,1,1.09.21l5,5a1,1,0,0,1,.21,1.09A1,1,0,0,1,20,7ZM16,5h1.59L16,3.41Z"/><path d="M20,24H4a1,1,0,0,1-1-1V1A1,1,0,0,1,4,0H15a1,1,0,0,1,.71.29l5,5A1,1,0,0,1,21,6V23A1,1,0,0,1,20,24ZM5,22H19V6.41L14.59,2H5Z"/><path d="M12,16a1,1,0,0,1-1-1v-.17a3,3,0,0,1,.88-2.12l.83-.83a1.05,1.05,0,0,0,.29-.71V11a1,1,0,0,0-2,0,1,1,0,0,1-2,0,3,3,0,0,1,6,0v.17a3,3,0,0,1-.88,2.12l-.83.83a1.05,1.05,0,0,0-.29.71V15A1,1,0,0,1,12,16Z"/><circle cx="12" cy="18" r="1"/></g><text x="0" y="39" fill="#000000" font-size="5px" font-weight="bold" font-family="'Helvetica Neue', Helvetica, Arial-Unicode, Arial, Sans-serif">Created by tezar tantular</text><text x="0" y="44" fill="#000000" font-size="5px" font-weight="bold" font-family="'Helvetica Neue', Helvetica, Arial-Unicode, Arial, Sans-serif">from the Noun Project</text></svg>