<svg width="89mm" height="53mm" version="1.1" viewBox="0 0 89 53" xmlns="http://www.w3.org/2000/svg">
 <g transform="translate(-26.596 -47.519)">
  <g stroke-width=".26458" aria-label="VA.">
   <path d="m66.85 49.658-12.094 35.899-12.75 0.089015-12.645-35.727 10.668-0.07447 8.3083 25.8 7.8965-25.913z" fill="#ffffff"/>
   <path d="m86.391 79.715-12.7 0.08866-1.8896 5.8553-10.465 0.07306 12.805-35.904 11.481-0.08015 13.255 35.722-10.515 0.07341zm-2.5423-7.6024-3.9416-11.555-3.729 11.609z" fill="#ffffff"/>
   <path d="m106.96 86.087q-2.6415 0.01844-4.277-1.3926-1.585-1.4622-1.6006-3.6973-0.0156-2.2351 1.5489-3.7193 1.6153-1.4845 4.2568-1.503 2.5907-0.01809 4.1758 1.4441 1.6358 1.4618 1.6514 3.697 0.0153 2.1843-1.6 3.6689-1.5645 1.4842-4.1552 1.5022z" fill="#da4167"/>
  </g>
  <g transform="translate(76.022 97.967)" fill="#ffffff" style="shape-inside:url(#rect1743);white-space:pre" aria-label="BETA">
   <path d="m6.8721-5.08q0.86077 0.18344 1.3829 0.86077 0.52211 0.66322 0.52211 1.524 0 1.2418-0.87488 1.9755-0.86077 0.71966-2.413 0.71966h-4.6143v-9.9059h4.4591q1.5099 0 2.3565 0.69144 0.86077 0.69144 0.86077 1.8768 0 0.87488-0.46566 1.4534-0.45155 0.57855-1.2135 0.80433zm-3.5842-0.81844h1.5804q0.59266 0 0.9031-0.254 0.32455-0.26811 0.32455-0.7761t-0.32455-0.7761q-0.31044-0.26811-0.9031-0.26811h-1.5804zm1.778 3.9511q0.60677 0 0.93133-0.26811 0.33866-0.28222 0.33866-0.80433t-0.35278-0.81844q-0.33866-0.29633-0.94544-0.29633h-1.7498v2.1872z"/>
   <path d="m12.587-7.9727v2.0038h3.2314v1.8627h-3.2314v2.1731h3.6547v1.9332h-6.0677v-9.9059h6.0677v1.9332z"/>
   <path d="m24.934-9.9059v1.9332h-2.6246v7.9727h-2.413v-7.9727h-2.6246v-1.9332z"/>
   <path d="m32.314-1.7498h-3.6971l-0.59266 1.7498h-2.5259l3.5842-9.9059h2.794l3.5842 9.9059h-2.5541zm-0.62088-1.8627-1.2277-3.6265-1.2135 3.6265z"/>
  </g>
 </g>
</svg>
